HIERARCHY
ROOT Hips
{
  OFFSET 57.1281 96.9118 33.8998
  CHANNELS 6 Xposition Yposition Zposition Zrotation Xrotation Yrotation
  JOINT spine
  {
    OFFSET 0 7.96568 0.458067
    CHANNELS 3 Zrotation Xrotation Yrotation
    JOINT spine1
    {
      OFFSET 0 10.2431 0
      CHANNELS 3 Zrotation Xrotation Yrotation
      JOINT spine2
      {
        OFFSET 0 9.81475 0
        CHANNELS 3 Zrotation Xrotation Yrotation
        JOINT Neck
        {
          OFFSET 0 25.1986 1.20138
          CHANNELS 3 Zrotation Xrotation Yrotation
          JOINT Head
          {
            OFFSET 0 7.61315 0
            CHANNELS 3 Zrotation Xrotation Yrotation
            End Site
            {
              OFFSET 0 18.4281 -6.07733
            }
          }
        }
        JOINT RightShoulder
        {
          OFFSET -4.1327 10.5992 -0.575451
          CHANNELS 3 Zrotation Xrotation Yrotation
          JOINT RightArm
          {
            OFFSET 0 13.9018 0
            CHANNELS 3 Zrotation Xrotation Yrotation
            JOINT RightArmRoll
            {
              OFFSET 0 7.01789 0
              CHANNELS 3 Zrotation Xrotation Yrotation
              JOINT RightForeArm
              {
                OFFSET 0 20.4406 0
                CHANNELS 3 Zrotation Xrotation Yrotation
                JOINT RightForeArmRoll
                {
                  OFFSET 0 7.87516 0
                  CHANNELS 3 Zrotation Xrotation Yrotation
                  JOINT RightHand
                  {
                    OFFSET 0 15.8037 0
                    CHANNELS 3 Zrotation Xrotation Yrotation
                    End Site
                    {
                      OFFSET 0 0 0
                    }
                  }
                }
              }
            }
          }
        }
        JOINT LeftShoulder
        {
          OFFSET 4.1327 10.5992 -0.575451
          CHANNELS 3 Zrotation Xrotation Yrotation
          JOINT LeftArm
          {
            OFFSET 0 13.9018 0
            CHANNELS 3 Zrotation Xrotation Yrotation
            JOINT LeftArmRoll
            {
              OFFSET 0 7.01788 0
              CHANNELS 3 Zrotation Xrotation Yrotation
              JOINT LeftForeArm
              {
                OFFSET 0 20.4406 0
                CHANNELS 3 Zrotation Xrotation Yrotation
                JOINT LeftForeArmRoll
                {
                  OFFSET 0 7.87515 0
                  CHANNELS 3 Zrotation Xrotation Yrotation
                  JOINT LeftHand
                  {
                    OFFSET 0 15.8037 0
                    CHANNELS 3 Zrotation Xrotation Yrotation
                    End Site
                    {
                      OFFSET 0 0 0
                    }
                  }
                }
              }
            }
          }
        }
      }
    }
  }
  JOINT RightUpLeg
  {
    OFFSET -7.06048 -1.2947 -1.0861
    CHANNELS 3 Zrotation Xrotation Yrotation
    JOINT RightUpLegRoll
    {
      OFFSET 0 18.5308 0
      CHANNELS 3 Zrotation Xrotation Yrotation
      JOINT RightLeg
      {
        OFFSET 0 -22.9476 0
        CHANNELS 3 Zrotation Xrotation Yrotation
        JOINT RightLegRoll
        {
          OFFSET 0 23.0226 0
          CHANNELS 3 Zrotation Xrotation Yrotation
          JOINT RightFoot
          {
            OFFSET 0 19.1625 0
            CHANNELS 3 Zrotation Xrotation Yrotation
            JOINT RightToeBase
            {
              OFFSET 0 16.0188 0
              CHANNELS 3 Zrotation Xrotation Yrotation
              End Site
              {
                OFFSET 0.00678979 7.75782 -0.894207
              }
            }
          }
        }
      }
    }
  }
  JOINT LeftUpLeg
  {
    OFFSET 7.06048 -1.2947 -1.0861
    CHANNELS 3 Zrotation Xrotation Yrotation
    JOINT LeftUpLegRoll
    {
      OFFSET 0 18.5309 0
      CHANNELS 3 Zrotation Xrotation Yrotation
      JOINT LeftLeg
      {
        OFFSET 0 22.9475 0
        CHANNELS 3 Zrotation Xrotation Yrotation
        JOINT LeftLegRoll
        {
          OFFSET 0 23.2355 0
          CHANNELS 3 Zrotation Xrotation Yrotation
          JOINT LeftFoot
          {
            OFFSET 0 18.9496 0
            CHANNELS 3 Zrotation Xrotation Yrotation
            JOINT LeftToeBase
            {
              OFFSET 0 16.0188 0
              CHANNELS 3 Zrotation Xrotation Yrotation
              End Site
              {
                OFFSET -0.0304289 7.75782 -0.894206
              }
            }
          }
        }
      }
    }
  }
}
MOTION
Frames: 7
Frame Time: 0.00208333
57.9308 96.7917 32.8533 0.852306 -2.36153 1.7265 0.00559682 -0.565986 -0.228983 0.00761809 2.87083 -0.467977 0.0132367 4.51588 -0.468516 -11.0914 8.4251 -1.71914 15.5131 10.8077 -4.23625 66.5557 -5.337 -3.75788 106.408 13.3189 16.3251 1.03368e-014 -3.18055e-015 6.36111e-015 0.536827 19.1022 -1.04284 -6.02069e-006 -1.00864e-005 -3.00746 8.03018 -4.95146 0.697655 -66.2782 -1.87099 1.89925 -103.577 13.6132 -4.87911 7.03159e-006 -2.33664e-007 2.18445e-007 -8.77348 8.65647 1.40801 4.09471e-006 -3.15644e-006 3 -8.02906 -4.95143 -0.697671 173.392 1.56464 4.32908 180 7.01536e-015 178.876 178.409 6.37387 179.666 -2.1973e-006 -6.39217e-006 0.0911744 -19.1311 68.3562 19.8505 8.13649 25.2327 -3.48774 -175.091 -0.392769 -1.70052 4.5067e-006 -1.99009e-005 -1.13406 -2.42988 -8.33353 0.00723429 -4.25296e-007 -6.38486e-006 -0.157327 19.971 69.3947 -20.7768 -8.13649 25.2327 3.48774 
57.9287 96.7937 32.8594 0.853673 -2.35888 1.72791 0.00393207 -0.565793 -0.230051 0.00441221 2.87121 -0.469704 0.0100332 4.51626 -0.470194 -11.0644 8.5147 -1.70435 15.4537 10.7768 -4.21917 66.5312 -5.34897 -3.76291 106.415 13.3292 16.5037 1.27222e-014 -3.97569e-015 -0 0.395037 19.0217 -1.01431 -6.02069e-006 -1.00864e-005 -3.00746 8.03018 -4.95146 0.697655 -66.2956 -1.84513 1.88726 -103.57 13.6525 -4.89063 7.03159e-006 -2.33664e-007 2.18445e-007 -8.7578 8.61035 1.40326 4.09471e-006 -3.15644e-006 3 -8.02906 -4.95143 -0.697671 173.389 1.56685 4.33115 180 7.01536e-015 178.876 178.407 6.37013 179.666 -2.1973e-006 -6.39217e-006 0.0911707 -19.1292 68.354 19.8484 8.13649 25.2327 -3.48774 -175.094 -0.388008 -1.69785 4.5067e-006 -1.99009e-005 -1.13406 -2.42914 -8.33342 0.00736655 -4.25296e-007 -6.38486e-006 -0.157327 19.9724 69.3962 -20.7782 -8.13649 25.2327 3.48774 
57.9099 96.8004 32.8129 0.855133 -2.35604 1.72955 0.00225424 -0.565663 -0.231109 0.00118072 2.87146 -0.471417 0.00680303 4.51651 -0.471858 -11.037 8.60625 -1.68998 15.3938 10.7437 -4.20231 66.5077 -5.36097 -3.768 106.421 13.3383 16.6823 6.36111e-015 -6.36111e-015 3.18055e-015 0.253979 18.9424 -0.985729 -6.02069e-006 -1.00864e-005 -3.00746 8.03018 -4.95146 0.697655 -66.313 -1.81873 1.87499 -103.562 13.6909 -4.90247 7.03159e-006 -2.33664e-007 2.18445e-007 -8.74216 8.56421 1.39849 4.09471e-006 -3.15644e-006 3 -8.02906 -4.95143 -0.697671 173.386 1.56949 4.33329 180 7.01536e-015 178.876 178.405 6.36687 179.666 -2.1973e-006 -6.39217e-006 0.0911876 -19.1274 68.3519 19.8464 8.13649 25.2327 -3.48774 -175.097 -0.38282 -1.69507 4.5067e-006 -1.99009e-005 -1.13406 -2.42837 -8.33363 0.00750088 -4.25296e-007 -6.38486e-006 -0.157327 19.9739 69.3977 -20.7798 -8.13649 25.2327 3.48774 
57.9179 96.7985 32.82 0.856659 -2.35308 1.73135 0.000567261 -0.565577 -0.23216 -0.00206871 2.87162 -0.473122 0.00355423 4.51667 -0.473514 -11.0094 8.69917 -1.67591 15.3336 10.7089 -4.18562 66.4851 -5.373 -3.77313 106.427 13.3466 16.8608 1.03368e-014 -2.38542e-015 3.18055e-015 0.113456 18.8639 -0.957123 -6.02069e-006 -1.00864e-005 -3.00746 8.03018 -4.95146 0.697655 -66.3302 -1.79195 1.86251 -103.554 13.7287 -4.91453 7.03159e-006 -2.33664e-007 2.18445e-007 -8.72655 8.51806 1.39372 4.09471e-006 -3.15644e-006 3 -8.02906 -4.95143 -0.697671 173.383 1.57242 4.33548 180 7.01536e-015 178.876 178.403 6.36395 179.666 -2.1973e-006 -6.39217e-006 0.0912191 -19.1256 68.35 19.8446 8.13649 25.2327 -3.48774 -175.1 -0.377334 -1.69221 4.5067e-006 -1.99009e-005 -1.13406 -2.42759 -8.33407 0.00763666 -4.25296e-007 -6.38486e-006 -0.157327 19.9754 69.3993 -20.7815 -8.13649 25.2327 3.48774 
57.9155 96.8005 32.8171 0.858222 -2.35003 1.73325 -0.00112495 -0.565516 -0.233208 -0.00532838 2.87173 -0.474822 0.000294767 4.51678 -0.475165 -10.9817 8.79287 -1.662 15.2732 10.6733 -4.16902 66.4628 -5.38503 -3.7783 106.432 13.3543 17.0394 5.1684e-015 -4.77083e-015 -0 -0.026726 18.786 -0.928513 -6.02069e-006 -1.00864e-005 -3.00746 8.03018 -4.95146 0.697655 -66.3475 -1.76497 1.84992 -103.546 13.7661 -4.92671 7.03159e-006 -2.33664e-007 2.18445e-007 -8.71097 8.47189 1.38895 4.09471e-006 -3.15644e-006 3 -8.02906 -4.95143 -0.697671 173.379 1.57551 4.33771 180 7.01536e-015 178.876 178.401 6.36125 179.666 -2.1973e-006 -6.39217e-006 0.091259 -19.124 68.348 19.8428 8.13649 25.2327 -3.48774 -175.103 -0.371676 -1.68931 4.5067e-006 -1.99009e-005 -1.13406 -2.42679 -8.33463 0.00777328 -4.25296e-007 -6.38486e-006 -0.157327 19.977 69.401 -20.7832 -8.13649 25.2327 3.48774 
57.8997 96.8014 32.8129 0.859793 -2.34698 1.73517 -0.00281847 -0.565461 -0.234254 -0.00859061 2.87182 -0.476521 -0.00296736 4.51687 -0.476814 -10.954 8.88677 -1.64814 15.2127 10.6374 -4.15245 66.4407 -5.39707 -3.78347 106.438 13.3618 17.2179 3.29983e-014 -1.43125e-014 6.36111e-015 -0.166761 18.7082 -0.899924 -6.02069e-006 -1.00864e-005 -3.00746 8.03018 -4.95146 0.697655 -66.3647 -1.73792 1.8373 -103.538 13.8033 -4.93894 7.03159e-006 -2.33664e-007 2.18445e-007 -8.69539 8.42573 1.38418 4.09471e-006 -3.15644e-006 3 -8.02906 -4.95143 -0.697671 173.376 1.57866 4.33995 180 7.01536e-015 178.876 178.399 6.3586 179.666 -2.1973e-006 -6.39217e-006 0.0913009 -19.1223 68.3461 19.841 8.13649 25.2327 -3.48774 -175.106 -0.365976 -1.6864 4.5067e-006 -1.99009e-005 -1.13406 -2.426 -8.33522 0.0079101 -4.25296e-007 -6.38486e-006 -0.157327 19.9786 69.4026 -20.7849 -8.13649 25.2327 3.48774 
57.8975 96.801 32.8051 0.861346 -2.34395 1.73705 -0.00450937 -0.565394 -0.235302 -0.0118477 2.87194 -0.478222 -0.00622414 4.51699 -0.478466 -10.9265 8.98027 -1.63418 15.1524 10.602 -4.13583 66.4183 -5.4091 -3.78863 106.443 13.3693 17.3965 -7.15625e-015 -7.95139e-016 -3.18055e-015 -0.306844 18.6301 -0.871378 -6.02069e-006 -1.00864e-005 -3.00746 8.03018 -4.95146 0.697655 -66.3819 -1.71099 1.82473 -103.53 13.8408 -4.9511 7.03159e-006 -2.33664e-007 2.18445e-007 -8.67982 8.37957 1.37941 4.09471e-006 -3.15644e-006 3 -8.02906 -4.95143 -0.697671 173.373 1.58171 4.34217 180 7.01536e-015 178.876 178.397 6.35585 179.666 -2.1973e-006 -6.39217e-006 0.0913386 -19.1206 68.3442 19.8392 8.13649 25.2327 -3.48774 -175.109 -0.360362 -1.68351 4.5067e-006 -1.99009e-005 -1.13406 -2.42521 -8.33575 0.00804651 -4.25296e-007 -6.38486e-006 -0.157327 19.9802 69.4043 -20.7866 -8.13649 25.2327 3.48774 
